<svg width="41" height="41" viewBox="0 0 41 41" fill="none" xmlns="http://www.w3.org/2000/svg">
<path d="M27.3334 13.6667C30.0519 13.6667 32.659 14.7467 34.5813 16.6689C36.5035 18.5912 37.5834 21.1983 37.5834 23.9167V35.8751H30.7501V23.9167C30.7501 23.0106 30.3901 22.1415 29.7494 21.5008C29.1086 20.8601 28.2396 20.5001 27.3334 20.5001C26.4273 20.5001 25.5582 20.8601 24.9175 21.5008C24.2767 22.1415 23.9167 23.0106 23.9167 23.9167V35.8751H17.0834V23.9167C17.0834 21.1983 18.1633 18.5912 20.0856 16.6689C22.0078 14.7467 24.6149 13.6667 27.3334 13.6667Z" stroke="#2D371D" stroke-width="3" stroke-linecap="round" stroke-linejoin="round"/>
<path d="M10.2501 15.3751H3.41675V35.8751H10.2501V15.3751Z" stroke="#2D371D" stroke-width="3" stroke-linecap="round" stroke-linejoin="round"/>
<path d="M6.83341 10.2501C8.72039 10.2501 10.2501 8.72039 10.2501 6.83341C10.2501 4.94644 8.72039 3.41675 6.83341 3.41675C4.94644 3.41675 3.41675 4.94644 3.41675 6.83341C3.41675 8.72039 4.94644 10.2501 6.83341 10.2501Z" stroke="#2D371D" stroke-width="3" stroke-linecap="round" stroke-linejoin="round"/>
</svg>
